<?xml version="1.0" encoding="UTF-8" standalone="no"?>
<svg
   xmlns:dc="http://purl.org/dc/elements/1.1/"
   xmlns:cc="http://creativecommons.org/ns#"
   xmlns:rdf="http://www.w3.org/1999/02/22-rdf-syntax-ns#"
   xmlns:svg="http://www.w3.org/2000/svg"
   xmlns="http://www.w3.org/2000/svg"
   xmlns:sodipodi="http://sodipodi.sourceforge.net/DTD/sodipodi-0.dtd"
   xmlns:inkscape="http://www.inkscape.org/namespaces/inkscape"
   width="494"
   height="494"
   id="svg2"
   version="1.1"
   inkscape:version="0.48.2 r9819"
   sodipodi:docname="TTC_-_DM.svg">
  <metadata
     id="metadata12">
    <rdf:RDF>
      <cc:Work
         rdf:about="">
        <dc:format>image/svg+xml</dc:format>
        <dc:type
           rdf:resource="http://purl.org/dc/dcmitype/StillImage" />
      </cc:Work>
    </rdf:RDF>
  </metadata>
  <defs
     id="defs10" />
  <sodipodi:namedview
     pagecolor="#ffffff"
     bordercolor="#666666"
     borderopacity="1"
     objecttolerance="10"
     gridtolerance="10"
     guidetolerance="10"
     inkscape:pageopacity="0"
     inkscape:pageshadow="2"
     inkscape:window-width="1600"
     inkscape:window-height="837"
     id="namedview8"
     showgrid="false"
     inkscape:zoom="1.0405762"
     inkscape:cx="235.17117"
     inkscape:cy="230.42333"
     inkscape:window-x="-8"
     inkscape:window-y="-8"
     inkscape:window-maximized="1"
     inkscape:current-layer="svg2">
    <inkscape:grid
       type="xygrid"
       id="grid3765" />
  </sodipodi:namedview>
  <g
     id="g3759">
    <path
       style="fill:#d20c13;fill-opacity:1"
       d="M 494,247 C 494,383.41433 383.41433,494 247,494 110.58567,494 0,383.41433 0,247 0,110.58567 110.58567,0 247,0 383.41433,0 494,110.58567 494,247 z"
       id="circle4"
       inkscape:connector-curvature="0" />
    <g
       id="flowRoot2991"
       style="font-size:8px;font-style:normal;font-weight:normal;line-height:125%;letter-spacing:-3.36592792999999980px;word-spacing:0px;fill:#ffffff;fill-opacity:1;stroke:none;font-family:Sans"
       transform="matrix(4.1030369,0,0,3.8952831,366.25868,-429.35138)">
      <path
         id="path2994"
         style="font-size:72px;font-variant:normal;font-weight:bold;font-stretch:normal;fill:#ffffff;font-family:Arial;-inkscape-font-specification:Arial Bold"
         d="m -78.359375,146.74723 19.019531,0 c 4.289034,5e-5 7.558562,0.32817 9.808594,0.98437 3.0234,0.89068 5.613242,2.47271 7.769531,4.7461 2.156206,2.27348 3.79683,5.05668 4.921875,8.34961 1.124952,3.293 1.687452,7.35354 1.6875,12.18164 -4.8e-5,4.24221 -0.527391,7.89845 -1.582031,10.96875 -1.289108,3.75001 -3.12895,6.78516 -5.519531,9.10547 -1.804727,1.75781 -4.242225,3.1289 -7.3125,4.11328 -2.296907,0.72656 -5.367216,1.08984 -9.210938,1.08984 l -19.582031,0 z m 10.40625,8.71875 0,34.13672 7.769531,0 c 2.906224,1e-5 5.003878,-0.16406 6.292969,-0.49219 1.687469,-0.42187 3.087858,-1.13671 4.201172,-2.14453 1.113246,-1.0078 2.021448,-2.666 2.724609,-4.97461 0.703088,-2.30858 1.05465,-5.45506 1.054688,-9.43945 -3.8e-5,-3.98435 -0.3516,-7.04294 -1.054688,-9.17579 -0.703161,-2.13277 -1.687535,-3.79683 -2.953125,-4.99218 -1.265657,-1.19527 -2.871124,-2.00387 -4.816406,-2.42578 -1.453152,-0.32809 -4.300806,-0.49215 -8.542969,-0.49219 z"
         inkscape:connector-curvature="0" />
      <path
         id="path2996"
         style="font-size:72px;font-variant:normal;font-weight:bold;font-stretch:normal;fill:#ffffff;font-family:Arial;-inkscape-font-specification:Arial Bold"
         d="m -29.799522,198.28629 0,-51.53906 15.574218,0 9.3515629,35.15625 9.2460937,-35.15625 15.6093754,0 0,51.53906 -9.667969,0 0,-40.57031 -10.2304689,40.57031 -10.0195312,0 -10.1953129,-40.57031 0,40.57031 z"
         inkscape:connector-curvature="0" />
    </g>
  </g>
</svg>
